<svg xmlns="http://www.w3.org/2000/svg" version="1.1" xmlns:xlink="http://www.w3.org/1999/xlink" xmlns:svgjs="http://svgjs.dev/svgjs" width="100%" height="100%" viewBox="0 0 1000 600"><rect width="1000" height="600" x="0" y="0" fill="#d2302c"/><g><circle r="166.66666666666666" cx="468.18268839518225" cy="490.4048208111134" fill="#f7f7f9" transform="matrix(0.4145717963631865,0,0,0.4145717963631865,0,96.69199851038351)"/><path d="M407.66677994803246 565.4048198491068L398.08628075032993 565.4048198491068L345.64863721260895 415.40481465904236L364.80963560801405 415.40481465904236L409.5091836398983 549.5034587546952L405.85272092834913 549.5034587546952L406.6463717494606 546.4422341589797L448.9082779736454 415.40481465904236L457.89353905551434 415.40481465904236L407.66677994803246 565.4048198491068ZM357.66677821801096 423.7948376250777L330.73933964458666 421.52726385047356L330.73933964458666 415.40481465904236L390.5465979497711 415.40481465904236L390.5465979497711 421.52726385047356L361.97516838975884 423.7948376250777L357.66677821801096 423.7948376250777ZM448.48310789090715 423.7948376250777L423.7948984199045 421.52726385047356L423.7948984199045 415.40481465904236L473.794900149926 415.40481465904236L473.794900149926 421.3288511451957L451.77108986408314 423.7948376250777L448.48310789090715 423.7948376250777ZM575.438894596557 563.9875862399792L510.13276988795747 563.9875862399792L510.13276988795747 557.865137048548L540.1214330570973 555.4274952408485L545.2234740499566 555.4274952408485L575.438894596557 557.865137048548L575.438894596557 563.9875862399792ZM552.167918734682 563.9875862399792L533.1769883723721 563.9875862399792Q533.6021584551104 546.8390595695354 533.687192471658 529.6905328990915Q533.8005711603882 512.5703509008301 533.8005711603882 495.2234115251084L533.8005711603882 495.2234115251084L533.8005711603882 484.19733404609576Q533.8005711603882 466.850394670374 533.687192471658 449.5884893111999Q533.6021584551104 432.35492862420836 533.1769883723721 415.40481465904236L533.1769883723721 415.40481465904236L552.167918734682 415.40481465904236Q551.969506029404 432.35492862420836 551.8561273406738 449.5884893111999Q551.7710933241261 466.850394670374 551.7710933241261 484.19733404609576L551.7710933241261 484.19733404609576L551.7710933241261 495.2234115251084Q551.7710933241261 512.5703509008301 551.8561273406738 529.6905328990915Q551.969506029404 546.8390595695354 552.167918734682 563.9875862399792L552.167918734682 563.9875862399792ZM488.7041977179482 454.1803262047733L479.9173493413572 454.1803262047733L481.5613403279452 415.40481465904236L603.8119114512914 415.40481465904236L605.6259704709747 454.1803262047733L596.8674667665662 454.1803262047733L589.5261966712852 415.40481465904236L597.887874965138 422.54767204904545L487.48537681409846 422.54767204904545L496.04546781322915 415.40481465904236L488.7041977179482 454.1803262047733Z " fill="#d2302c" transform="matrix(0.4145717963631865,0,0,0.4145717963631865,0,96.69199851038351)"/><path d="M787.1359194694808 563.9312379841153L778.548521228661 563.9312379841153L731.5464894371914 429.48002055684174L748.7212859188312 429.48002055684174L788.7873422081 549.678189424648L785.5099032345327 549.678189424648L786.2212853373223 546.9342870281731L824.1023823108796 429.48002055684174L832.1562439746072 429.48002055684174L787.1359194694808 563.9312379841153ZM742.3188469937229 437.00034564347686L718.1826685062115 434.96782534979167L718.1826685062115 429.48002055684174L771.7903912521577 429.48002055684174L771.7903912521577 434.96782534979167L746.1806355517247 437.00034564347686L742.3188469937229 437.00034564347686ZM823.7212847558137 437.00034564347686L801.5922200583165 434.96782534979167L801.5922200583165 429.48002055684174L846.4092925340744 429.48002055684174L846.4092925340744 434.7899798240942L826.6684391816573 437.00034564347686L823.7212847558137 437.00034564347686ZM900.931649412179 562.6609128005621L855.733479381355 562.6609128005621L855.733479381355 557.528799059007L875.8554302888381 555.521685268993L881.5464871111567 555.521685268993L900.931649412179 557.528799059007L900.931649412179 562.6609128005621ZM887.212137429804 562.6609128005621L870.9265685766516 562.6609128005621Q871.104414102349 558.2655876654679 871.2822596280466 550.7706690825039Q871.4855116574151 543.2757504995399 871.5617311684282 535.1202628211281Q871.6633571831126 526.9901816463874 871.6633571831126 520.7655882469767L871.6633571831126 520.7655882469767L871.6633571831126 509.78997866107676Q871.6633571831126 500.46579181379605 871.4855116574151 492.970873230832Q871.2822596280466 485.475954647868 870.9265685766516 478.69241816769375L870.9265685766516 478.69241816769375L854.6409997234994 477.95562956123285L854.6409997234994 473.2046133747438L884.823926084724 466.0653858431747L887.0342919041066 467.5389630560964L886.4753488233432 493.1487187565295L886.4753488233432 520.7655882469767Q886.4753488233432 526.9901816463874 886.5769748380274 535.1202628211281Q886.6531943490406 543.2757504995399 886.831039874738 550.7706690825039Q887.0342919041066 558.2655876654679 887.212137429804 562.6609128005621L887.212137429804 562.6609128005621ZM877.6846985531549 442.8438414878217L877.6846985531549 442.8438414878217Q873.3147799217318 442.8438414878217 870.1897799701908 439.99831307666244Q867.0901865223209 437.1781911691743 867.0901865223209 432.60502050838267L867.0901865223209 432.60502050838267Q867.0901865223209 428.03184984759105 870.1897799701908 425.11010192541863Q873.3147799217318 422.1629474995751 877.6846985531549 422.1629474995751L877.6846985531549 422.1629474995751Q881.9021781625515 422.1629474995751 885.1033976251056 425.11010192541863Q888.3046170876598 428.03184984759105 888.3046170876598 432.60502050838267L888.3046170876598 432.60502050838267Q888.3046170876598 437.1781911691743 885.1033976251056 439.99831307666244Q881.9021781625515 442.8438414878217 877.6846985531549 442.8438414878217ZM964.0414045311031 565.4048151970371L964.0414045311031 565.4048151970371Q950.6775836001232 565.4048151970371 940.0830715692894 559.9170104040871Q929.4631530347845 554.4292056111371 923.416405161071 543.2757504995399Q917.3950637910286 532.1222953879426 917.3950637910286 515.6588810090927L917.3950637910286 515.6588810090927Q917.3950637910286 500.2879462880986 923.6958767014528 489.032865161817Q930.0220961155478 477.77778403553543 940.2609170949868 471.65481665080887Q950.4997380744257 465.5318492660823 962.5678273181816 465.5318492660823L962.5678273181816 465.5318492660823Q974.4580710362397 465.5318492660823 982.9692497660462 470.5623369929531Q991.480428495853 475.59282471982385 995.9519731419603 484.18022296064373Q1000.4489242917386 492.7930277051346 1000.4489242917386 503.56538526166594L1000.4489242917386 503.56538526166594Q1000.4489242917386 510.17107621614275 999.1531926045145 514.5409948475658L999.1531926045145 514.5409948475658L924.5342913225979 514.5409948475658L924.5342913225979 508.87534452891845L977.5830709877807 508.87534452891845Q982.5119326999672 508.87534452891845 984.1633554385864 506.30928765814093Q985.8147781772057 503.76863729103445 985.8147781772057 498.2808324980845L985.8147781772057 498.2808324980845Q985.8147781772057 486.56843430572377 979.5901847777948 478.9718897080755Q973.3655913783839 471.3753451104272 962.2121362667865 471.3753451104272L962.2121362667865 471.3753451104272Q954.158274603059 471.3753451104272 947.5779901522535 476.40583283729796Q940.9977057014478 481.43632056416874 937.1359171434458 490.8621334261337Q933.2995350891151 500.2879462880986 933.2995350891151 513.4485151897101L933.2995350891151 513.4485151897101Q933.2995350891151 528.2605068299407 937.7964862388935 537.7879457065899Q942.2680308850008 547.2899780795681 950.1440470230309 551.7869292293465Q957.9946566573899 556.2584738754538 968.0556321111314 556.2584738754538L968.0556321111314 556.2584738754538Q977.7609165134782 556.2584738754538 984.9763635560605 552.8794088872023Q992.2172171023137 549.5003438989506 997.8828674209612 542.8946529444738L997.8828674209612 542.8946529444738L1000.8046153431337 545.4607098152514Q994.7578674694203 554.6070511368347 985.6115261478371 560.0186364187714Q976.4651848262538 565.4048151970371 964.0414045311031 565.4048151970371ZM1070.8757524679297 475.03388163906044L1037.0342895780718 475.03388163906044L1037.0342895780718 468.2757516625573L1070.8757524679297 468.2757516625573L1070.8757524679297 475.03388163906044ZM1051.8462812183022 565.4048151970371L1051.8462812183022 565.4048151970371Q1040.311728551639 565.4048151970371 1034.823923758689 559.3580673233237Q1029.3361189657392 553.3367259532814 1029.3361189657392 541.0653846801572L1029.3361189657392 541.0653846801572Q1029.3361189657392 536.6954660487341 1029.4377449804233 533.2147750457982Q1029.5139644914366 529.7340840428624 1029.5139644914366 524.8052223306759L1029.5139644914366 524.8052223306759L1029.5139644914366 475.03388163906044L1011.2212818482701 475.03388163906044L1011.2212818482701 469.5460768461105L1033.3757530494383 467.7168085817939L1029.717216520805 470.4607109782688L1035.205021313755 439.7442480399518L1045.2659967674965 439.7442480399518L1044.5292081610357 471.0196540590323L1044.5292081610357 473.2046133747438L1044.5292081610357 541.0653846801572Q1044.5292081610357 549.678189424648 1047.7304276235898 553.5145714789788Q1050.931647086144 557.3509535333096 1056.9529884561864 557.3509535333096L1056.9529884561864 557.3509535333096Q1060.9926225398856 557.3509535333096 1064.0922159877555 556.1568478607696Q1067.2172159392965 554.9881486919006 1070.8757524679297 552.777782872518L1070.8757524679297 552.777782872518L1073.6196548644045 555.9027828240589Q1069.7578663064028 560.4759534848506 1064.4733135428214 562.9403843409439Q1059.163354275569 565.4048151970371 1051.8462812183022 565.4048151970371ZM1130.860507635313 562.6609128005621L1083.8584758438437 562.6609128005621L1083.8584758438437 557.1731080076122L1103.2436381448658 554.9881486919006L1107.2578657248941 554.9881486919006L1130.860507635313 557.1731080076122L1130.860507635313 562.6609128005621ZM1108.5535974121183 562.6609128005621L1101.4143698805492 562.6609128005621L1101.4143698805492 433.69750016623846L1107.994654331355 433.69750016623846L1108.5535974121183 504.30217386812683L1108.5535974121183 562.6609128005621ZM1191.2263603577624 437.00034564347686L1167.445872921646 434.96782534979167L1167.445872921646 429.48002055684174L1214.0922136617205 429.48002055684174L1214.0922136617205 434.96782534979167L1194.8848968863958 437.00034564347686L1191.2263603577624 437.00034564347686ZM1196.3584740993174 563.9312379841153L1188.4824579612875 563.9312379841153L1106.3432315927357 443.0216870135191L1105.9875405413409 442.8438414878217L1101.5922154062466 436.0857115113185L1083.6806303181463 434.96782534979167L1083.6806303181463 429.48002055684174L1115.870670469385 429.48002055684174L1193.0556286220792 543.8092870766322L1189.9560351742093 544.9271732381591L1189.5749376191432 490.4048163600545L1189.5749376191432 429.48002055684174L1196.3584740993174 429.48002055684174L1196.3584740993174 563.9312379841153ZM1256.1653837410033 565.4048151970371L1256.1653837410033 565.4048151970371Q1245.1897741551036 565.4048151970371 1238.0505466235343 559.1802217976262Q1230.9367255956363 552.9556283982155 1230.9367255956363 541.6243277609207L1230.9367255956363 541.6243277609207Q1230.9367255956363 534.4851002293515 1234.0363190435062 528.9210759253883Q1237.135912491376 523.3316451177542 1244.3767660376295 518.93631998266Q1251.5922130802116 514.5409948475658 1263.6603023239675 511.08571034830106L1263.6603023239675 511.08571034830106Q1271.3584729363001 508.697499003221 1279.7680256514222 506.51253968750945Q1288.1775783665448 504.30217386812683 1295.4946514238113 502.6507511295076L1295.4946514238113 502.6507511295076L1295.4946514238113 507.22392179029924Q1288.1775783665448 509.0531900546159 1280.6826597835807 511.1619298593143Q1273.1877412006165 513.2706696640126 1266.9631478012059 515.6588810090927L1266.9631478012059 515.6588810090927Q1255.2507496088451 519.8509541148184 1250.398107407672 525.7198564628343Q1245.5708717101695 531.5633523071791 1245.5708717101695 539.2361164158406L1245.5708717101695 539.2361164158406Q1245.5708717101695 547.671075634634 1250.2202618819742 552.0409942660572Q1254.8950585574503 556.4363194011513 1262.5678226661116 556.4363194011513L1262.5678226661116 556.4363194011513Q1266.7853022755085 556.4363194011513 1270.7995298555365 554.7848966625321Q1274.8391639392357 553.158880427584 1279.94587117712 549.1192463438847Q1285.077984918675 545.1050187638565 1292.0139604208755 538.1436367579848L1292.0139604208755 538.1436367579848L1293.6653831594947 546.7564415024757L1289.2700580244004 546.7564415024757Q1283.6044077057531 552.777782872518 1278.5739199788825 556.9952624819148Q1273.5434322520116 561.1873355876404 1268.2334729847591 563.2960753923387Q1262.9489202211776 565.4048151970371 1256.1653837410033 565.4048151970371ZM1305.0220903004606 565.2269696713396L1305.0220903004606 565.2269696713396Q1296.7903831110357 565.2269696713396 1292.6745295163232 559.6375388637055Q1288.5586759216108 554.0735145597423 1287.9997328408472 544.3682301573956L1287.9997328408472 544.3682301573956L1287.9997328408472 543.8092870766322L1287.9997328408472 496.9851008108602Q1287.9997328408472 486.74627983142125 1285.8147735251357 481.156849023787Q1283.6044077057531 475.59282471982385 1279.0312370449615 473.3824589004413Q1274.4580663841698 471.1974995847297 1267.1409933269033 471.1974995847297L1267.1409933269033 471.1974995847297Q1261.8310340596508 471.1974995847297 1256.5464812960695 472.74729630866466Q1251.2365220288168 474.2970930325996 1245.1897741551036 477.599938509838L1245.1897741551036 477.599938509838L1253.0657902931334 472.67107679765144L1250.1440423709612 487.10197088281615Q1249.4072537645002 492.0562390986737 1247.1206684341046 494.0633528886878Q1244.8340831037087 496.0704666787019 1241.3533921007727 496.0704666787019L1241.3533921007727 496.0704666787019Q1234.773107649967 496.0704666787019 1233.2995304370454 489.4901822278962L1233.2995304370454 489.4901822278962Q1236.0434328335202 478.33672711629885 1245.9265627615644 471.9342881911906Q1255.8096926896085 465.5318492660823 1271.1806274106025 465.5318492660823L1271.1806274106025 465.5318492660823Q1287.085098708689 465.5318492660823 1294.8594888320347 473.1283938637306Q1302.6338789553804 480.6995319577079 1302.6338789553804 497.7218894173211L1302.6338789553804 497.7218894173211L1302.6338789553804 542.8946529444738Q1302.6338789553804 551.5074576889648 1304.6409927453947 554.5308316258215Q1306.6481065354087 557.528799059007 1310.306643064042 557.528799059007L1310.306643064042 557.528799059007Q1312.694854409122 557.528799059007 1314.5241226734388 556.5379454158356Q1316.3533909377554 555.521685268993 1318.538350253467 553.158880427584L1318.538350253467 553.158880427584L1321.4855046793102 555.9027828240589Q1318.538350253467 560.653799010548 1314.4224966587544 562.9403843409439Q1310.306643064042 565.2269696713396 1305.0220903004606 565.2269696713396ZM1375.8046095280465 562.6609128005621L1330.9875370522886 562.6609128005621L1330.9875370522886 557.528799059007L1350.753796908377 555.521685268993L1356.775138278419 555.521685268993L1375.8046095280465 557.528799059007L1375.8046095280465 562.6609128005621ZM1362.0850975456715 562.6609128005621L1345.9773742182167 562.6609128005621Q1346.1806262475852 558.2655876654679 1346.2568457585985 550.7706690825039Q1346.3584717732826 543.2757504995399 1346.4346912842957 535.1202628211281Q1346.53631729898 526.9901816463874 1346.53631729898 520.7655882469767L1346.53631729898 520.7655882469767L1346.53631729898 509.61213313537934Q1346.53631729898 500.2879462880986 1346.4346912842957 492.970873230832Q1346.3584717732826 485.65380017356546 1345.9773742182167 478.8702636933912L1345.9773742182167 478.8702636933912L1329.8950573944328 477.95562956123285L1329.8950573944328 473.3824589004413L1358.0708699656434 466.0653858431747L1360.4336748070523 467.5389630560964L1361.5261544649081 488.39770257004045L1361.5261544649081 488.93123914713277L1361.5261544649081 520.7655882469767Q1361.5261544649081 526.9901816463874 1361.6277804795923 535.1202628211281Q1361.7294064942766 543.2757504995399 1361.80562600529 550.7706690825039Q1361.907252019974 558.2655876654679 1362.0850975456715 562.6609128005621L1362.0850975456715 562.6609128005621ZM1435.6115191697324 562.6609128005621L1390.997698723343 562.6609128005621L1390.997698723343 557.528799059007L1410.7385520757603 555.521685268993L1416.7852999494735 555.521685268993L1435.6115191697324 557.528799059007L1435.6115191697324 562.6609128005621ZM1421.71416166166 562.6609128005621L1405.9875358892712 562.6609128005621Q1406.1653814149686 558.2655876654679 1406.2670074296527 550.8722950971882Q1406.343226940666 543.4535960252373 1406.4448529553501 535.3235148504966Q1406.5464789700345 527.168027172085 1406.5464789700345 520.7655882469767L1406.5464789700345 520.7655882469767L1406.5464789700345 500.11010076240115Q1406.5464789700345 486.56843430572377 1402.2273733459538 480.9790034980896Q1397.9336742255437 475.41497919412643 1390.6166011682772 475.41497919412643L1390.6166011682772 475.41497919412643Q1383.6806256660766 475.41497919412643 1375.8046095280465 479.78489782554954Q1367.9285933900164 484.18022296064373 1358.4265610170382 494.8001414951487L1358.4265610170382 494.8001414951487L1356.775138278419 488.39770257004045L1358.782252068433 488.39770257004045Q1367.7507478643188 477.04099542907454 1376.9987152005865 471.29912559941397Q1386.221276033183 465.5318492660823 1396.2822514869245 465.5318492660823L1396.2822514869245 465.5318492660823Q1408.1724952049826 465.5318492660823 1414.676560144775 473.48408491512555Q1421.1806250845677 481.43632056416874 1421.1806250845677 500.11010076240115L1421.1806250845677 500.11010076240115L1421.1806250845677 520.7655882469767Q1421.1806250845677 527.168027172085 1421.2568445955808 535.3235148504966Q1421.3584706102652 543.4535960252373 1421.4346901212784 550.8722950971882Q1421.5363161359626 558.2655876654679 1421.71416166166 562.6609128005621L1421.71416166166 562.6609128005621ZM1495.4438353150895 562.6609128005621L1450.9824538907264 562.6609128005621L1450.9824538907264 557.528799059007L1470.3676161917488 555.521685268993L1476.414364065462 555.521685268993L1495.4438353150895 557.528799059007L1495.4438353150895 562.6609128005621ZM1481.7243233327144 562.6609128005621L1465.6166000052597 562.6609128005621Q1465.9976975603254 558.2655876654679 1466.0739170713387 550.8722950971882Q1466.175543086023 543.4535960252373 1466.2517625970363 535.3235148504966Q1466.3533886117202 527.168027172085 1466.3533886117202 520.7655882469767L1466.3533886117202 520.7655882469767L1466.3533886117202 500.11010076240115Q1466.3533886117202 486.1873367506578 1461.9580634766264 480.8011579723921Q1457.5627383415322 475.41497919412643 1449.7121287071732 475.41497919412643L1449.7121287071732 475.41497919412643Q1442.928592226999 475.41497919412643 1435.07798259264 479.42920677415464Q1427.20196645461 483.44343435418284 1418.0556251330268 493.7076618372929L1418.0556251330268 493.7076618372929L1416.0485113430127 487.10197088281615L1418.2334706587242 487.10197088281615Q1427.0241209289127 475.9485157712188 1436.1704622504958 470.74018251865056Q1445.3168035720792 465.5318492660823 1455.199933500123 465.5318492660823L1455.199933500123 465.5318492660823Q1467.8269658246422 465.5318492660823 1474.4834697864612 473.48408491512555Q1481.165380251951 481.43632056416874 1481.165380251951 499.9068487330327L1481.165380251951 499.9068487330327L1481.165380251951 520.7655882469767Q1481.165380251951 527.168027172085 1481.2670062666352 535.3235148504966Q1481.3432257776485 543.4535960252373 1481.4448517923329 550.8722950971882Q1481.5464778070173 558.2655876654679 1481.7243233327144 562.6609128005621L1481.7243233327144 562.6609128005621ZM1637.9489144060904 562.6609128005621L1579.4123299479577 562.6609128005621L1579.4123299479577 557.1731080076122L1606.292410831944 554.9881486919006L1610.8655814927356 554.9881486919006L1637.9489144060904 557.1731080076122L1637.9489144060904 562.6609128005621ZM1617.0901748921465 562.6609128005621L1600.0678174325333 562.6609128005621Q1600.4489149875992 547.2899780795681 1600.5251344986123 531.9190433585741Q1600.6267605132966 516.5735151412509 1600.6267605132966 501.0247348945595L1600.6267605132966 501.0247348945595L1600.6267605132966 491.1416049665154Q1600.6267605132966 475.59282471982385 1600.5251344986123 460.1202639841456Q1600.4489149875992 444.6731097521383 1600.0678174325333 429.48002055684174L1600.0678174325333 429.48002055684174L1617.0901748921465 429.48002055684174Q1616.912329366449 444.6731097521383 1616.8107033517647 460.1202639841456Q1616.7090773370805 475.59282471982385 1616.7090773370805 491.1416049665154L1616.7090773370805 491.1416049665154L1616.7090773370805 501.0247348945595Q1616.7090773370805 516.5735151412509 1616.8107033517647 531.9190433585741Q1616.912329366449 547.2899780795681 1617.0901748921465 562.6609128005621L1617.0901748921465 562.6609128005621ZM1560.2050131726328 464.236117578858L1552.328997034603 464.236117578858L1553.8025742475247 429.48002055684174L1663.355418077155 429.48002055684174L1665.006840815774 464.236117578858L1657.1562311814153 464.236117578858L1650.5505402269384 429.48002055684174L1658.0708653135734 435.88245948195L1559.087127011106 435.88245948195L1566.7852976234385 429.48002055684174L1560.2050131726328 464.236117578858ZM1724.8391569611313 562.6609128005621L1676.3635479567401 562.6609128005621L1676.3635479567401 557.528799059007L1696.6633443899207 555.3438397432956L1704.1582629728846 555.3438397432956L1724.8391569611313 557.528799059007L1724.8391569611313 562.6609128005621ZM1707.6389539758204 562.6609128005621L1691.5312306483656 562.6609128005621Q1691.709076174063 558.2655876654679 1691.8107021887472 550.7706690825039Q1691.9123282034316 543.2757504995399 1691.9885477144448 535.1202628211281Q1692.0901737291292 526.9901816463874 1692.0901737291292 520.7655882469767L1692.0901737291292 520.7655882469767L1692.0901737291292 509.78997866107676Q1692.0901737291292 500.2879462880986 1691.9885477144448 492.970873230832Q1691.9123282034316 485.65380017356546 1691.5312306483656 478.8702636933912L1691.5312306483656 478.8702636933912L1675.4489138245817 478.1588815906014L1675.4489138245817 473.3824589004413L1703.5993198921212 466.0653858431747L1705.9875312372014 467.5389630560964L1707.080010895057 493.32656428222697L1707.080010895057 493.5044098079244L1707.080010895057 520.7655882469767Q1707.080010895057 526.9901816463874 1707.1816369097414 535.1202628211281Q1707.2578564207547 543.2757504995399 1707.3594824354386 550.7706690825039Q1707.461108450123 558.2655876654679 1707.6389539758204 562.6609128005621L1707.6389539758204 562.6609128005621ZM1706.9021653693594 504.30217386812683L1706.9021653693594 504.30217386812683L1703.065783315029 494.8001414951487L1706.3432222885963 494.8001414951487Q1709.087124685071 485.83164569926294 1714.0413929009287 479.3275807594704Q1718.9702546131152 472.8489223233489 1725.0932219978417 469.1903857947156Q1731.2415958862393 465.5318492660823 1737.6440348113476 465.5318492660823L1737.6440348113476 465.5318492660823Q1742.9285875749292 465.5318492660823 1746.9682216586284 467.64058907078066Q1750.9824492386565 469.723922371808 1752.2781809258809 473.7635564555072L1752.2781809258809 473.7635564555072Q1752.0749288965126 478.69241816769375 1749.8899695808009 481.43632056416874Q1747.7050102650892 484.18022296064373 1742.7507420492316 484.18022296064373L1742.7507420492316 484.18022296064373Q1739.270051046296 484.18022296064373 1736.5261486498212 482.4525807110113Q1733.7822462533459 480.6995319577079 1730.6826528054762 477.2442474584431L1730.6826528054762 477.2442474584431L1726.4651731960794 473.2046133747438L1734.6968803855043 473.5857109298098Q1725.194848012526 476.12636129691623 1718.512937547036 483.5450603688671Q1711.8310270815462 490.96375944081797 1706.9021653693594 504.30217386812683ZM1788.126757605753 565.4048151970371L1788.126757605753 565.4048151970371Q1777.1511480198533 565.4048151970371 1770.011920488284 559.1802217976262Q1762.8726929567147 552.9556283982155 1762.8726929567147 541.6243277609207L1762.8726929567147 541.6243277609207Q1762.8726929567147 534.4851002293515 1765.9976929082559 528.9210759253883Q1769.0972863561256 523.3316451177542 1776.3127333987081 518.93631998266Q1783.5535869449614 514.5409948475658 1795.6216761887172 511.08571034830106L1795.6216761887172 511.08571034830106Q1803.2944402973785 508.697499003221 1811.7293995161717 506.51253968750945Q1820.1389522312943 504.30217386812683 1827.4560252885612 502.6507511295076L1827.4560252885612 502.6507511295076L1827.4560252885612 507.22392179029924Q1820.1389522312943 509.0531900546159 1812.6440336483302 511.1619298593143Q1805.1237085616954 513.2706696640126 1798.9245216659556 515.6588810090927L1798.9245216659556 515.6588810090927Q1787.2121234735946 519.8509541148184 1782.3594812724214 525.7198564628343Q1777.5068390712481 531.5633523071791 1777.5068390712481 539.2361164158406L1777.5068390712481 539.2361164158406Q1777.5068390712481 547.671075634634 1782.1816357467237 552.0409942660572Q1786.8310259185287 556.4363194011513 1794.529196530861 556.4363194011513L1794.529196530861 556.4363194011513Q1798.7212696365868 556.4363194011513 1802.760903720286 554.7848966625321Q1806.7751313003141 553.158880427584 1811.9072450418694 549.1192463438847Q1817.0139522797535 545.1050187638565 1823.9753342856252 538.1436367579848L1823.9753342856252 538.1436367579848L1825.6267570242444 546.7564415024757L1821.23143188915 546.7564415024757Q1815.5657815705026 552.777782872518 1810.5352938436322 556.9952624819148Q1805.5048061167608 561.1873355876404 1800.1948468495088 563.2960753923387Q1794.884887582256 565.4048151970371 1788.126757605753 565.4048151970371ZM1836.958057661539 565.2269696713396L1836.958057661539 565.2269696713396Q1828.7263504721145 565.2269696713396 1824.6104968774016 559.6375388637055Q1820.4946432826891 554.0735145597423 1819.9611067055966 544.3682301573956L1819.9611067055966 544.3682301573956L1819.9611067055966 543.8092870766322L1819.9611067055966 496.9851008108602Q1819.9611067055966 486.74627983142125 1817.7507408862143 481.156849023787Q1815.5657815705026 475.59282471982385 1810.992610909711 473.3824589004413Q1806.4194402489197 471.1974995847297 1799.1023671916528 471.1974995847297L1799.1023671916528 471.1974995847297Q1793.7924079244003 471.1974995847297 1788.4824486571479 472.74729630866466Q1783.1724893898954 474.2970930325996 1777.1511480198533 477.599938509838L1777.1511480198533 477.599938509838L1785.0017576542123 472.67107679765144L1782.0800097320398 487.10197088281615Q1781.3432211255786 492.0562390986737 1779.056635795183 494.0633528886878Q1776.770050464787 496.0704666787019 1773.3147659655224 496.0704666787019L1773.3147659655224 496.0704666787019Q1766.7090750110456 496.0704666787019 1765.260904301795 489.4901822278962L1765.260904301795 489.4901822278962Q1768.00480669827 478.33672711629885 1777.887936626314 471.9342881911906Q1787.745660050687 465.5318492660823 1803.1165947716813 465.5318492660823L1803.1165947716813 465.5318492660823Q1819.0464725734387 465.5318492660823 1826.8208626967844 473.1283938637306Q1834.59525282013 480.6995319577079 1834.59525282013 497.7218894173211L1834.59525282013 497.7218894173211L1834.59525282013 542.8946529444738Q1834.59525282013 551.5074576889648 1836.6023666101441 554.5308316258215Q1838.6094804001582 557.528799059007 1842.2680169287914 557.528799059007L1842.2680169287914 557.528799059007Q1844.6562282738719 557.528799059007 1846.4854965381883 556.5379454158356Q1848.3147648025051 555.521685268993 1850.4997241182164 553.158880427584L1850.4997241182164 553.158880427584L1853.4214720403888 555.9027828240589Q1850.4997241182164 560.653799010548 1846.3838705235044 562.9403843409439Q1842.2680169287914 565.2269696713396 1836.958057661539 565.2269696713396ZM1908.8584630506516 563.5755469327205L1901.541389993385 563.5755469327205L1863.4824474941306 468.2757516625573L1880.3269594280464 468.2757516625573L1911.221267892061 551.1263601338987L1908.1216744441908 551.1263601338987L1909.2141541020465 548.7635552924899L1937.3899666732573 468.2757516625573L1944.5291942048266 468.2757516625573L1908.8584630506516 563.5755469327205ZM1871.714154683555 475.41497919412643L1853.8025695954548 473.5857109298098L1853.8025695954548 468.2757516625573L1899.1531786483051 468.2757516625573L1899.1531786483051 473.5857109298098L1879.2090732665192 475.41497919412643L1871.714154683555 475.41497919412643ZM1936.8310235924937 475.41497919412643L1918.7415929786957 473.5857109298098L1918.7415929786957 468.2757516625573L1954.768015184265 468.2757516625573L1954.768015184265 473.5857109298098L1939.956023544035 475.41497919412643L1936.8310235924937 475.41497919412643ZM2010.916388297318 565.4048151970371L2010.916388297318 565.4048151970371Q1997.5779738700094 565.4048151970371 1986.9580553355045 559.9170104040871Q1976.3635433046702 554.4292056111371 1970.316795430957 543.2757504995399Q1964.2700475572437 532.1222953879426 1964.2700475572437 515.6588810090927L1964.2700475572437 515.6588810090927Q1964.2700475572437 500.2879462880986 1970.5962669713385 489.032865161817Q1976.8970798817627 477.77778403553543 1987.1359008612017 471.65481665080887Q1997.4001283443117 465.5318492660823 2009.4682175880675 465.5318492660823L2009.4682175880675 465.5318492660823Q2021.3584613061253 465.5318492660823 2029.8696400359322 470.5623369929531Q2038.3554122620676 475.59282471982385 2042.852363411846 484.18022296064373Q2047.3239080579533 492.7930277051346 2047.3239080579533 503.56538526166594L2047.3239080579533 503.56538526166594Q2047.3239080579533 510.17107621614275 2046.0535828744005 514.5409948475658L2046.0535828744005 514.5409948475658L1971.4092750888126 514.5409948475658L1971.4092750888126 508.87534452891845L2024.4580547539954 508.87534452891845Q2029.412322969853 508.87534452891845 2031.038339204801 506.30928765814093Q2032.6897619434203 503.76863729103445 2032.6897619434203 498.2808324980845L2032.6897619434203 498.2808324980845Q2032.6897619434203 486.56843430572377 2026.4651685440094 478.9718897080755Q2020.2659816482696 471.3753451104272 2009.0871200330016 471.3753451104272L2009.0871200330016 471.3753451104272Q2001.058664872945 471.3753451104272 1994.4529739184682 476.40583283729796Q1987.8726894676624 481.43632056416874 1984.036307413332 490.8621334261337Q1980.1999253590006 500.2879462880986 1980.1999253590006 513.4485151897101L1980.1999253590006 513.4485151897101Q1980.1999253590006 528.2605068299407 1984.6714700051084 537.7879457065899Q1989.1684211548868 547.2899780795681 1997.0190307892458 551.7869292293465Q2004.8950469272759 556.2584738754538 2014.9560223810172 556.2584738754538L2014.9560223810172 556.2584738754538Q2024.635900279693 556.2584738754538 2031.8767538259463 552.8794088872023Q2039.0922008685284 549.5003438989506 2044.7578511871761 542.8946529444738L2044.7578511871761 542.8946529444738L2047.7050056130197 545.4607098152514Q2041.658257739306 554.6070511368347 2032.5119164177227 560.0186364187714Q2023.3655750961398 565.4048151970371 2010.916388297318 565.4048151970371ZM2110.611508702575 562.6609128005621L2061.9580541724868 562.6609128005621L2061.9580541724868 557.528799059007L2083.172484737826 555.521685268993L2089.0413870858415 555.521685268993L2110.611508702575 557.528799059007L2110.611508702575 562.6609128005621ZM2094.5291918787916 562.6609128005621L2078.4214685513366 562.6609128005621Q2078.5993140770343 556.9952624819148 2078.700940091718 549.7544089356613Q2078.8025661064025 542.538961893079 2078.8787856174154 534.9424172954307Q2078.9804116321 527.3458726977824 2078.9804116321 520.7655882469767L2078.9804116321 520.7655882469767L2078.9804116321 426.55827263466927L2062.872688304645 425.82148402820843L2062.872688304645 420.8926223160219L2091.7852894823163 415.404817523072L2094.5291918787916 417.0562402616912L2093.970248798028 445.4098983585992L2093.970248798028 520.7655882469767Q2093.970248798028 527.3458726977824 2094.0718748127124 534.9424172954307Q2094.1480943237257 542.538961893079 2094.24972033841 549.7544089356613Q2094.351346353094 556.9952624819148 2094.5291918787916 562.6609128005621L2094.5291918787916 562.6609128005621Z " fill="#f7f7f9" transform="matrix(0.4145717963631865,0,0,0.4145717963631865,0,96.69199851038351)"/></g></svg>